# xmcd CD database file
#
# Track frame offsets:
#	150
#	35103
#	68235
#	100438
#	118340
#	153099
#	159019
#	185964
#	219040
#	230059
#	258301
#
# Disc length: 3905 seconds
#
# Revision: 0
# Processed by: cddbd v1.5.2PL0 Copyright (c) Steve Scherf et al.
# Submitted via: CDex 1.77
#
DISCID=980f3f0b
DTITLE=David Sanchez - Carib
DYEAR=2018
DGENRE=Jazz
TTITLE0=Morning Mist
TTITLE1=Wave Under Silk
TTITLE2=Madigra
TTITLE3=Fernando's Theme
TTITLE4=Mirage
TTITLE5=Prelude to Canto
TTITLE6=Canto
TTITLE7=The Land of Hills
TTITLE8=Iwa (Contemplation)
TTITLE9=Iwa (Spirit going back home)
TTITLE10=A Thousand Yesterdays
EXTD=YEAR: 2018
EXTT0=
EXTT1=
EXTT2=
EXTT3=
EXTT4=
EXTT5=
EXTT6=
EXTT7=
EXTT8=
EXTT9=
EXTT10=
PLAYORDER=
